<svg xmlns="http://www.w3.org/2000/svg" version="1.1" xmlns:xlink="http://www.w3.org/1999/xlink" xmlns:svgjs="http://svgjs.com/svgjs" width="600.000000pt" height="543.000000pt"><svg version="1.0" xmlns="http://www.w3.org/2000/svg" width="600.000000pt" height="543.000000pt" viewBox="0 0 600.000000 543.000000" preserveAspectRatio="xMidYMid meet">

<g transform="translate(0.000000,543.000000) scale(0.100000,-0.100000)" fill="#000000" stroke="none">
<path d="M5640 5415 c-36 -7 -76 -17 -90 -23 -14 -5 -52 -13 -85 -16 -540 -65
-888 -382 -1044 -954 -77 -279 -105 -507 -156 -1237 -40 -567 -79 -848 -151
-1101 l-14 -51 -93 18 c-284 55 -808 70 -1182 35 -1137 -108 -2124 -484 -1906
-728 l28 -32 274 72 c671 176 1073 255 1497 293 171 15 561 7 697 -15 505 -82
868 -321 1085 -715 38 -71 40 -90 4 -50 -33 37 -178 128 -275 173 -306 142
-714 219 -1224 233 -578 15 -1132 -78 -1472 -249 -115 -57 -150 -84 -86 -66
74 20 250 -9 342 -56 18 -10 39 -10 100 1 218 38 365 47 716 48 226 0 394 -5
475 -13 173 -19 412 -56 558 -87 l123 -26 50 45 c231 208 671 54 854 -298 17
-34 34 -72 38 -86 l7 -25 16 24 c65 92 124 269 145 438 14 114 6 352 -15 460
-49 243 -150 424 -271 485 -22 11 -41 22 -43 23 -2 1 6 49 17 106 35 175 51
378 61 764 24 901 40 1132 94 1394 105 509 348 782 734 826 l63 7 45 -42 c118
-109 264 -121 351 -29 115 123 117 338 4 419 -33 23 -131 50 -176 49 -16 0
-59 -7 -95 -14z"></path>
<path d="M1450 4584 c-638 -44 -1025 -172 -1254 -414 -327 -347 -233 -925 260
-1587 223 -301 534 -605 742 -727 18 -11 12 1 -191 359 -365 643 -500 918
-572 1170 -181 629 205 889 1417 955 402 22 1262 11 1988 -24 151 -8 276 -13
277 -12 1 1 -125 26 -280 54 -812 151 -1424 219 -2012 226 -176 2 -345 2 -375
0z"></path>
<path d="M2310 3840 c-513 -36 -1033 -122 -1483 -246 -137 -38 -346 -102 -355
-109 -3 -3 99 -248 108 -258 4 -4 92 19 196 52 1016 322 2098 501 2894 478
200 -5 194 -1 -45 33 -288 41 -443 52 -820 55 -203 2 -426 -1 -495 -5z"></path>
<path d="M2535 3339 c-288 -19 -595 -84 -950 -199 -261 -86 -767 -292 -767
-313 0 -8 123 -248 141 -276 7 -11 32 0 122 52 641 366 1430 548 2328 535
l243 -3 -72 33 c-304 137 -666 197 -1045 171z"></path>
<path d="M1440 977 c-117 -27 -185 -78 -232 -175 -31 -63 -33 -73 -32 -167 1
-120 25 -193 97 -302 128 -193 329 -308 537 -308 83 0 103 4 157 29 72 33 134
94 166 164 32 69 31 221 -2 315 -46 135 -172 286 -304 365 -119 72 -278 104
-387 79z m340 -290 c137 -65 217 -244 160 -361 -75 -155 -314 -103 -410 89
-35 71 -36 176 -1 227 55 79 145 95 251 45z"></path>
<path d="M3990 979 c-294 -58 -363 -405 -138 -693 83 -106 214 -197 348 -242
38 -13 85 -18 155 -18 87 0 107 3 155 25 79 37 125 81 162 156 28 58 32 74 32
156 0 140 -48 260 -154 387 -86 103 -243 197 -375 225 -77 16 -118 17 -185 4z
m333 -290 c205 -105 249 -377 72 -444 -145 -56 -345 111 -345 287 0 96 31 146
107 174 46 17 112 10 166 -17z"></path>
</g>
</svg><style>@media (prefers-color-scheme: light) { :root { filter: none; } }
</style></svg>